<?xml version="1.0" encoding="utf-8"?>
<!-- Generator: Adobe Illustrator 18.1.1, SVG Export Plug-In . SVG Version: 6.00 Build 0)  -->
<svg version="1.1" id="Capa_1" xmlns="http://www.w3.org/2000/svg" xmlns:xlink="http://www.w3.org/1999/xlink" x="0px" y="0px"
	 viewBox="0 0 612 407" enable-background="new 0 0 612 407" xml:space="preserve">
<g>
	<path fill="#2B275B" d="M186.7,235h-7.1v-4.6h-0.1c-1.8,3.3-5.7,5.5-9.3,5.5c-8.6,0-12.3-4.3-12.3-12.9v-20.8h7.2v20.1
		c0,5.8,2.3,7.9,6.3,7.9c6,0,8.1-3.9,8.1-9v-19.1h7.2V235z"/>
	<path fill="#2B275B" d="M194.5,189.6h7.2V235h-7.2V189.6z"/>
	<path fill="#2B275B" d="M206.3,202.1h5.5v-9.9h7.2v9.9h6.5v5.4H219v17.5c0,3,0.3,4.5,3.5,4.5c1,0,2,0,3.1-0.3v5.6
		c-1.6,0.2-3.1,0.4-4.7,0.4c-7.6,0-8.9-2.9-9.1-8.4v-19.4h-5.5V202.1z"/>
	<path fill="#2B275B" d="M231,189.6h7.2v6.9H231V189.6z M231,202.1h7.2V235H231V202.1z"/>
	<path fill="#2B275B" d="M251.8,220.4c0,5.1,2.8,9.7,8.8,9.7c4.3,0,6.7-1.8,8-5.5h6.9c-1.5,7.2-7.8,11.2-14.9,11.2
		c-10.4,0-16.1-7.1-16.1-17.3c0-9.3,6.1-17.3,15.9-17.3c10.4,0,16.7,9.3,15.5,19.2H251.8z M268.7,215.7c-0.3-4.6-3.3-8.7-8.3-8.7
		c-5,0-8.5,3.8-8.6,8.7H268.7z"/>
	<path fill="#2B275B" d="M281.4,202.1h6.9v4.8l0.1,0.1c2.2-3.6,5.9-5.8,10.2-5.8c7.2,0,11.6,3.7,11.6,11.2V235H303v-20.7
		c-0.2-5.1-2.1-7.4-6.4-7.4c-4.8,0-7.9,3.8-7.9,8.6V235h-7.2V202.1z"/>
	<path fill="#2B275B" d="M314.6,202.1h5.5v-9.9h7.2v9.9h6.5v5.4h-6.5v17.5c0,3,0.3,4.5,3.5,4.5c1,0,2,0,3-0.3v5.6
		c-1.6,0.2-3.1,0.4-4.7,0.4c-7.6,0-8.9-2.9-9.1-8.4v-19.4h-5.5V202.1z"/>
	<path fill="#2B275B" d="M339.1,202.1h6.8v6.4h0.1c0.8-3.5,5.2-7.2,9.6-7.2c1.7,0,2,0.1,2.7,0.2v7c-1-0.2-2.1-0.3-3.1-0.3
		c-4.9,0-8.9,3.9-8.9,11.2V235h-7.2V202.1z"/>
	<path fill="#2B275B" d="M366,220.4c0,5.1,2.8,9.7,8.8,9.7c4.3,0,6.7-1.8,8-5.5h6.9c-1.5,7.2-7.8,11.2-14.9,11.2
		c-10.4,0-16.1-7.1-16.1-17.3c0-9.3,6.1-17.3,15.9-17.3c10.4,0,16.7,9.3,15.5,19.2H366z M382.9,215.7c-0.3-4.6-3.3-8.7-8.3-8.7
		c-5,0-8.5,3.8-8.6,8.7H382.9z"/>
	<path fill="#2B275B" d="M426.1,233.3c0,9.9-5.7,14.7-16.1,14.7c-6.6,0-14-2.5-14.7-10.2h7.2c0.9,4.1,4.2,4.8,7.9,4.8
		c5.8,0,8.5-3,8.5-8.4v-5h-0.1c-2,3.6-5.8,5.8-9.8,5.8c-10.4,0-14.7-7.9-14.7-17.3c0-8.8,5.5-16.5,14.9-16.5c4.1,0,7.9,1.7,9.7,5.4
		h0.1v-4.5h7.2V233.3z M418.8,217.8c0-5.7-2.5-10.9-8.8-10.9c-6.4,0-8.6,6-8.6,11.4c0,5.3,2.6,10.9,8.6,10.9
		C416.4,229.3,418.8,223.5,418.8,217.8z"/>
	<path fill="#2B275B" d="M460.9,227.7c0,1.8,0.4,2.5,1.7,2.5h0.8c0.3,0,0.6-0.1,1-0.1v5c-1.1,0.4-3.4,0.8-4.6,0.8c-3,0-5-1-5.6-4
		c-2.9,2.8-7.5,4-11.4,4c-5.9,0-11.2-3.2-11.2-9.6c0-8.2,6.5-9.5,12.6-10.2c5.3-1,9.9-0.3,9.9-4.6c0-3.8-3.9-4.4-6.8-4.4
		c-4.1,0-6.9,1.7-7.2,5.2h-7.2c0.5-8.5,7.6-10.9,14.9-10.9c6.4,0,13.2,2.6,13.2,9.5V227.7z M453.7,218.5c-2.2,1.5-5.7,1.4-8.9,2
		c-3.1,0.5-5.9,1.7-5.9,5.5c0,3.3,4.1,4.2,6.7,4.2c3.2,0,8.1-1.7,8.1-6.2V218.5z"/>
	<path fill="#2B275B" d="M474.2,224.4c0.4,4.3,3.6,5.7,7.4,5.7c2.8,0,7.5-0.6,7.3-4.3c-0.2-3.8-5.5-4.3-10.7-5.5
		c-5.3-1.1-10.5-3-10.5-9.7c0-7.2,7.8-9.4,13.7-9.4c6.7,0,12.9,2.7,13.7,10.1h-7.6c-0.7-3.5-3.4-4.4-6.7-4.4c-2.1,0-6,0.5-6,3.4
		c0,3.6,5.3,4.1,10.7,5.3c5.3,1.2,10.6,3.1,10.6,9.6c0,7.8-7.9,10.7-14.7,10.7c-8.3,0-14.4-3.7-14.6-11.4H474.2z"/>
	<g>
		<path fill="#2B275B" d="M89.8,187.9"/>
	</g>
	<g>
		<path fill="#2B275B" d="M90.8,189c-0.7-2.2-1.8-3-2.3-3.4c-1.8-1.4-4.3-1.1-7.8-0.1l-0.7-3.2c4.3-1.2,7.5-1.3,10.2,0.4
			c1.9,1.2,3.6,3.2,4.2,5.7L90.8,189z"/>
	</g>
	<g>
		<g>
			<g>
				<path d="M98.6,194.9l10.2-2.8l20.1,29.3l0.1,0l2.4-35.3l10.1-2.7l11.2,41.3l-6.9,1.9l-8.6-31.9l-0.1,0l-2.8,35l-6,1.6
					l-20.1-28.8l-0.1,0l8.6,31.9l-6.9,1.9L98.6,194.9z"/>
			</g>
		</g>
		<g>
			<polygon fill="#2B275B" points="98.8,236.6 96.5,236.6 97,208.2 99.3,208.3 			"/>
		</g>
		<g>
			<path fill="#1E1A1A" d="M106.4,242.4l-0.5-1.8c-2.4-8.4-5-17.1-7.5-25.4c-3.5-11.5-4.6-14.6-7.7-26.4l3.5-0.9
				c3,11.7,4.1,14.8,7.6,26.3c2.4,7.8,4.8,15.8,7.1,23.7c5.2-1.5,10.6-2.9,15.8-4.3c5.8-1.5,11.7-3.1,17.4-4.8l1,3.5
				c-5.8,1.7-11.7,3.3-17.5,4.8c-5.8,1.5-11.8,3.1-17.5,4.8L106.4,242.4z"/>
		</g>
		<g>
			<g>
				<path fill="#3E3E3D" d="M95,241c0-4.1,3.4-7.4,7.5-7.4c4.1,0,7.4,3.4,7.4,7.5c0,4.1-3.4,7.4-7.5,7.4C98.3,248.4,95,245.1,95,241
					"/>
			</g>
			<g>
				<path fill="#FFFFFF" d="M97.1,241c0-3,2.4-5.3,5.4-5.3c3,0,5.3,2.4,5.3,5.4c0,3-2.4,5.3-5.4,5.3C99.5,246.3,97.1,243.9,97.1,241
					"/>
			</g>
			<g>
				<path fill="#FFFFFF" d="M98.7,241c0-2.1,1.7-3.8,3.8-3.8c2.1,0,3.8,1.7,3.8,3.8c0,2.1-1.7,3.8-3.8,3.8
					C100.3,244.8,98.6,243.1,98.7,241"/>
			</g>
			<g>
				<g>
					<path d="M105.7,237.7l-1.5,1.3c-0.4-0.3-0.7-0.4-1.1-0.5c-0.3-0.1-0.7,0-1.1,0.1c-0.7,0.2-1.3,0.6-1.7,1.1
						c-0.4,0.6-0.5,1.2-0.3,1.9c0.1,0.7,0.5,1.2,1,1.5c0.5,0.3,1.2,0.4,1.9,0.2c0.9-0.2,1.5-0.7,1.9-1.4l1.8,0.7
						c-0.6,1.3-1.7,2.2-3.3,2.6c-1.4,0.3-2.6,0.2-3.6-0.5c-1-0.7-1.6-1.6-1.8-2.7c-0.2-0.8-0.1-1.6,0.1-2.3c0.3-0.8,0.7-1.4,1.3-2
						c0.6-0.5,1.4-0.9,2.2-1.1c0.8-0.2,1.5-0.2,2.2,0C104.6,236.9,105.2,237.2,105.7,237.7z"/>
				</g>
			</g>
		</g>
		<g>
			<g>
				<g>
					<path fill-rule="evenodd" clip-rule="evenodd" fill="#FFFFFF" d="M146,220.7c0.1-0.4,0.2-0.7,0.3-1.1c-0.1,0-0.2,0-0.3,0
						c0-0.2,0.1-0.3,0.1-0.5c0,0,0-0.1,0.1-0.1c1.1-0.3,2.2-0.6,3.3-0.9c0,0,0,0,0,0c0.1,0.6,0.1,1.2-0.1,1.7
						c-0.2,0.6-0.6,1-1.2,1.3c0.1,0.5,0.3,1.1,0.4,1.6c0.3-0.1,0.6-0.2,1-0.3c0,0.1,0.1,0.3,0.1,0.4c-0.8,0.2-1.6,0.4-2.5,0.7
						c0-0.1-0.1-0.3-0.1-0.4c0.3-0.1,0.6-0.2,1-0.3c-0.1-0.3-0.1-0.5-0.2-0.8c-0.1-0.3-0.1-0.5-0.2-0.8
						C147.1,221.4,146.6,221.2,146,220.7z"/>
				</g>
				<g>
					<path fill-rule="evenodd" clip-rule="evenodd" fill="#FFFFFF" d="M145.9,219.2c-0.1,0.2-0.1,0.4-0.2,0.7c0.1,0,0.2,0,0.3,0
						c-0.1,0.2-0.1,0.4-0.2,0.6c-0.3-0.3-0.5-0.7-0.7-1.1C145.4,219.4,145.7,219.3,145.9,219.2z"/>
				</g>
			</g>
		</g>
		<g>
		</g>
	</g>
	<path fill="#3E3E3D" d="M343.3,186.5c-0.2-2.2-2-3.4-4.3-3.4c-3.2,0-4.9,2.8-4.9,5.7c0,3.4,1.6,6,4.9,6c2.4,0,4.1-1.7,4.4-4h0.9
		c-0.4,3-2.6,4.8-5.4,4.8c-4.1,0-5.8-3.2-5.8-6.8c0-3.6,2.1-6.5,5.8-6.5c2.7,0,5,1.4,5.2,4.2H343.3z"/>
	<path fill="#3E3E3D" d="M355.9,192.9c0,0.7,0,1.5,0.8,1.5c0.2,0,0.4,0,0.7-0.1v0.8c-0.3,0.1-0.5,0.1-0.8,0.1
		c-1.5,0-1.7-0.8-1.7-1.9v-0.7h0c-0.6,1.5-2.3,2.8-4.7,2.8c-2.4,0-4.3-0.9-4.3-3.6c0-3,2.6-3.6,4.7-3.8c4.2-0.3,4.4-0.6,4.4-2.6
		c0-0.6-0.6-2.5-3.5-2.5c-2.3,0-3.8,1.2-3.9,3.4h-0.9c0.1-2.8,1.9-4.2,4.8-4.2c2.2,0,4.4,0.7,4.4,3.3V192.9z M355,188
		c-0.7,0.9-2.8,0.7-4.6,1c-2.2,0.3-3.5,1-3.5,2.9c0,1.6,1.1,2.8,3.3,2.8c4.3,0,4.7-3.7,4.7-4.3V188z"/>
	<path fill="#3E3E3D" d="M359.9,185.3L359.9,185.3c0.5-1.7,2.6-3,4.9-2.9v0.9c-1-0.1-2.3,0.1-3.5,1.2c-0.9,1-1.4,1.8-1.4,3.7v6.9
		h-0.9v-12.7h0.9V185.3z"/>
	<path fill="#3E3E3D" d="M375.6,182.5v12c0,1,0,5.7-5.5,5.5c-2.7,0-4.8-1-5-4h0.9c0.2,2.2,2,3.1,4.1,3.1c4.4,0,4.5-3.6,4.5-4.5v-2.9
		h0c-0.9,1.9-2.4,2.9-4.6,2.9c-3.7,0-5.5-2.7-5.5-6.3c0-3.4,1.9-6.3,5.5-6.3c2,0,3.9,1.1,4.6,2.9h0v-2.6H375.6z M365.5,188.5
		c0,3,1.6,5.5,4.5,5.5c3.1,0,4.6-2.6,4.6-5.5c0-2.9-1.5-5.4-4.6-5.4C367,183,365.5,185.8,365.5,188.5z"/>
	<path fill="#3E3E3D" d="M387.8,192.9c0,0.7,0,1.5,0.8,1.5c0.2,0,0.4,0,0.7-0.1v0.8c-0.3,0.1-0.5,0.1-0.8,0.1
		c-1.5,0-1.7-0.8-1.7-1.9v-0.7h0c-0.6,1.5-2.3,2.8-4.7,2.8c-2.4,0-4.3-0.9-4.3-3.6c0-3,2.6-3.6,4.7-3.8c4.2-0.3,4.4-0.6,4.4-2.6
		c0-0.6-0.6-2.5-3.5-2.5c-2.3,0-3.8,1.2-3.9,3.4h-0.9c0.1-2.8,1.9-4.2,4.8-4.2c2.2,0,4.4,0.7,4.4,3.3V192.9z M386.8,188
		c-0.7,0.9-2.8,0.7-4.6,1c-2.2,0.3-3.5,1-3.5,2.9c0,1.6,1.1,2.8,3.3,2.8c4.3,0,4.7-3.7,4.7-4.3V188z"/>
	<path fill="#3E3E3D" d="M396.1,182.5h1.1l4.7,11.6l4.3-11.6h1.1l-5.4,14.1c-0.5,1.3-0.9,2.2-1.5,2.6c-0.7,0.5-1.5,0.6-3,0.6V199
		c1.4,0,2-0.1,2.6-0.8c0.4-0.4,0.7-1.3,1.3-3L396.1,182.5z"/>
	<path fill="#3E3E3D" d="M416.6,177.6v17.6h-0.9v-17.6H416.6z"/>
	<path fill="#3E3E3D" d="M424.8,182.2c3.8,0,5.8,3,5.8,6.6c0,3.6-2.1,6.6-5.8,6.6c-3.8,0-5.8-3-5.8-6.6
		C419,185.3,421.1,182.2,424.8,182.2z M424.8,194.7c3.2,0,4.9-2.8,4.9-5.8s-1.7-5.8-4.9-5.8c-3.2,0-4.9,2.8-4.9,5.8
		S421.7,194.7,424.8,194.7z"/>
	<path fill="#3E3E3D" d="M443.4,182.5v12c0,1,0,5.7-5.5,5.5c-2.7,0-4.8-1-5-4h0.9c0.2,2.2,2,3.1,4.1,3.1c4.4,0,4.5-3.6,4.5-4.5v-2.9
		h0c-0.9,1.9-2.4,2.9-4.6,2.9c-3.7,0-5.5-2.7-5.5-6.3c0-3.4,1.9-6.3,5.5-6.3c2,0,3.9,1.1,4.6,2.9h0v-2.6H443.4z M433.2,188.5
		c0,3,1.6,5.5,4.5,5.5c3.1,0,4.6-2.6,4.6-5.5c0-2.9-1.5-5.4-4.6-5.4C434.7,183,433.2,185.8,433.2,188.5z"/>
	<path fill="#3E3E3D" d="M449.3,177.2h1.3l-3.3,3.5h-0.9L449.3,177.2z M446.4,195.2v-12.7h0.9v12.7H446.4z"/>
	<path fill="#3E3E3D" d="M450.7,191c0.1,2.3,1.9,3.7,4.2,3.7c1.7,0,4-0.5,4-2.7c0-4.3-8.7-1.3-8.7-6.5c0-2.5,2.4-3.3,4.6-3.3
		c2.7,0,4.7,1.2,4.7,4.1h-0.9c0-2.3-1.6-3.2-3.8-3.2c-1.7,0-3.7,0.6-3.7,2.4c0,2.1,2.2,2.3,4.2,2.8c2.5,0.5,4.5,1.1,4.5,3.7
		c0,2.7-2.7,3.5-5,3.5c-2.9,0-5.1-1.6-5.1-4.5H450.7z"/>
	<path fill="#3E3E3D" d="M466.9,183.3h-2.8v8.9c0,2,1,2.3,2.7,2.2v0.8c-1.9,0.1-3.8-0.1-3.7-3v-8.9h-2.3v-0.8h2.3v-4h0.9v4h2.8
		V183.3z"/>
	<path fill="#3E3E3D" d="M468.8,180.1v-2.5h0.9v2.5H468.8z M468.8,195.2v-12.7h0.9v12.7H468.8z"/>
	<path fill="#3E3E3D" d="M482.3,186.5c-0.2-2.2-2-3.4-4.3-3.4c-3.2,0-4.9,2.8-4.9,5.7c0,3.4,1.6,6,4.9,6c2.4,0,4.1-1.7,4.4-4h0.9
		c-0.4,3-2.6,4.8-5.4,4.8c-4.1,0-5.8-3.2-5.8-6.8c0-3.6,2.1-6.5,5.8-6.5c2.7,0,5,1.4,5.2,4.2H482.3z"/>
	<path fill="#3E3E3D" d="M494.9,192.9c0,0.7,0,1.5,0.8,1.5c0.2,0,0.4,0,0.7-0.1v0.8c-0.3,0.1-0.5,0.1-0.8,0.1
		c-1.5,0-1.7-0.8-1.7-1.9v-0.7h0c-0.6,1.5-2.3,2.8-4.7,2.8c-2.4,0-4.2-0.9-4.2-3.6c0-3,2.6-3.6,4.7-3.8c4.2-0.3,4.4-0.6,4.4-2.6
		c0-0.6-0.6-2.5-3.5-2.5c-2.3,0-3.8,1.2-3.9,3.4h-0.9c0.1-2.8,1.9-4.2,4.8-4.2c2.2,0,4.4,0.7,4.4,3.3V192.9z M494,188
		c-0.7,0.9-2.8,0.7-4.6,1c-2.2,0.3-3.5,1-3.5,2.9c0,1.6,1.1,2.8,3.3,2.8c4.3,0,4.7-3.7,4.7-4.3V188z"/>
</g>
</svg>
